<mxfile host="app.diagrams.net" agent="Mozilla/5.0 (Windows NT 10.0; Win64; x64; rv:142.0) Gecko/20100101 Firefox/142.0" version="28.2.0">
  <diagram name="Page-1" id="Us3IjSDT7tqLzFlyqOSq">
    <mxGraphModel dx="1042" dy="563" grid="1" gridSize="10" guides="1" tooltips="1" connect="1" arrows="1" fold="1" page="1" pageScale="1" pageWidth="850" pageHeight="1100" math="0" shadow="0">
      <root>
        <mxCell id="0" />
        <mxCell id="1" parent="0" />
        <mxCell id="6IdksCOMpPBM9RsViP1L-1" value="p&lt;sub&gt;0&lt;/sub&gt;" style="text;html=1;align=center;verticalAlign=middle;resizable=0;points=[];autosize=1;strokeColor=none;fillColor=none;" vertex="1" parent="1">
          <mxGeometry x="150" y="158" width="40" height="30" as="geometry" />
        </mxCell>
        <mxCell id="6IdksCOMpPBM9RsViP1L-25" value="" style="group" vertex="1" connectable="0" parent="1">
          <mxGeometry x="270" y="158" width="75" height="252" as="geometry" />
        </mxCell>
        <mxCell id="6IdksCOMpPBM9RsViP1L-8" value="" style="rounded=1;whiteSpace=wrap;html=1;" vertex="1" parent="6IdksCOMpPBM9RsViP1L-25">
          <mxGeometry width="75" height="210" as="geometry" />
        </mxCell>
        <mxCell id="6IdksCOMpPBM9RsViP1L-15" value="Dense (512)" style="text;whiteSpace=wrap;html=1;" vertex="1" parent="6IdksCOMpPBM9RsViP1L-25">
          <mxGeometry x="2.5" y="222" width="70" height="30" as="geometry" />
        </mxCell>
        <mxCell id="6IdksCOMpPBM9RsViP1L-16" value="" style="ellipse;whiteSpace=wrap;html=1;aspect=fixed;shadow=0;fillStyle=solid;fillColor=#5A5A5A;" vertex="1" parent="6IdksCOMpPBM9RsViP1L-25">
          <mxGeometry x="22.5" y="12" width="30" height="30" as="geometry" />
        </mxCell>
        <mxCell id="6IdksCOMpPBM9RsViP1L-17" value="" style="ellipse;whiteSpace=wrap;html=1;aspect=fixed;shadow=0;fillStyle=solid;fillColor=#5A5A5A;" vertex="1" parent="6IdksCOMpPBM9RsViP1L-25">
          <mxGeometry x="22.5" y="135" width="30" height="30" as="geometry" />
        </mxCell>
        <mxCell id="6IdksCOMpPBM9RsViP1L-18" value="" style="ellipse;whiteSpace=wrap;html=1;aspect=fixed;shadow=0;fillStyle=solid;fillColor=#5A5A5A;" vertex="1" parent="6IdksCOMpPBM9RsViP1L-25">
          <mxGeometry x="22.5" y="172" width="30" height="30" as="geometry" />
        </mxCell>
        <mxCell id="6IdksCOMpPBM9RsViP1L-19" value="" style="ellipse;whiteSpace=wrap;html=1;aspect=fixed;shadow=0;fillStyle=solid;fillColor=#5A5A5A;" vertex="1" parent="6IdksCOMpPBM9RsViP1L-25">
          <mxGeometry x="22.5" y="52" width="30" height="30" as="geometry" />
        </mxCell>
        <mxCell id="6IdksCOMpPBM9RsViP1L-21" value="" style="ellipse;whiteSpace=wrap;html=1;aspect=fixed;shadow=0;fillStyle=solid;fillColor=#5A5A5A;" vertex="1" parent="6IdksCOMpPBM9RsViP1L-25">
          <mxGeometry x="22.5" y="90" width="30" height="30" as="geometry" />
        </mxCell>
        <mxCell id="6IdksCOMpPBM9RsViP1L-26" value="" style="group" vertex="1" connectable="0" parent="1">
          <mxGeometry x="396" y="158" width="75" height="252" as="geometry" />
        </mxCell>
        <mxCell id="6IdksCOMpPBM9RsViP1L-27" value="" style="rounded=1;whiteSpace=wrap;html=1;" vertex="1" parent="6IdksCOMpPBM9RsViP1L-26">
          <mxGeometry width="75" height="210" as="geometry" />
        </mxCell>
        <mxCell id="6IdksCOMpPBM9RsViP1L-28" value="Dense (512)" style="text;whiteSpace=wrap;html=1;" vertex="1" parent="6IdksCOMpPBM9RsViP1L-26">
          <mxGeometry x="2.5" y="222" width="70" height="30" as="geometry" />
        </mxCell>
        <mxCell id="6IdksCOMpPBM9RsViP1L-29" value="" style="ellipse;whiteSpace=wrap;html=1;aspect=fixed;shadow=0;fillStyle=solid;fillColor=#5A5A5A;" vertex="1" parent="6IdksCOMpPBM9RsViP1L-26">
          <mxGeometry x="22.5" y="12" width="30" height="30" as="geometry" />
        </mxCell>
        <mxCell id="6IdksCOMpPBM9RsViP1L-30" value="" style="ellipse;whiteSpace=wrap;html=1;aspect=fixed;shadow=0;fillStyle=solid;fillColor=#5A5A5A;" vertex="1" parent="6IdksCOMpPBM9RsViP1L-26">
          <mxGeometry x="22.5" y="135" width="30" height="30" as="geometry" />
        </mxCell>
        <mxCell id="6IdksCOMpPBM9RsViP1L-31" value="" style="ellipse;whiteSpace=wrap;html=1;aspect=fixed;shadow=0;fillStyle=solid;fillColor=#5A5A5A;" vertex="1" parent="6IdksCOMpPBM9RsViP1L-26">
          <mxGeometry x="22.5" y="172" width="30" height="30" as="geometry" />
        </mxCell>
        <mxCell id="6IdksCOMpPBM9RsViP1L-32" value="" style="ellipse;whiteSpace=wrap;html=1;aspect=fixed;shadow=0;fillStyle=solid;fillColor=#5A5A5A;" vertex="1" parent="6IdksCOMpPBM9RsViP1L-26">
          <mxGeometry x="22.5" y="52" width="30" height="30" as="geometry" />
        </mxCell>
        <mxCell id="6IdksCOMpPBM9RsViP1L-33" value="" style="ellipse;whiteSpace=wrap;html=1;aspect=fixed;shadow=0;fillStyle=solid;fillColor=#5A5A5A;" vertex="1" parent="6IdksCOMpPBM9RsViP1L-26">
          <mxGeometry x="22.5" y="90" width="30" height="30" as="geometry" />
        </mxCell>
        <mxCell id="6IdksCOMpPBM9RsViP1L-35" value="" style="group" vertex="1" connectable="0" parent="1">
          <mxGeometry x="519" y="158" width="75" height="252" as="geometry" />
        </mxCell>
        <mxCell id="6IdksCOMpPBM9RsViP1L-36" value="" style="rounded=1;whiteSpace=wrap;html=1;" vertex="1" parent="6IdksCOMpPBM9RsViP1L-35">
          <mxGeometry width="75" height="210" as="geometry" />
        </mxCell>
        <mxCell id="6IdksCOMpPBM9RsViP1L-37" value="Dense (512)" style="text;whiteSpace=wrap;html=1;" vertex="1" parent="6IdksCOMpPBM9RsViP1L-35">
          <mxGeometry x="2.5" y="222" width="70" height="30" as="geometry" />
        </mxCell>
        <mxCell id="6IdksCOMpPBM9RsViP1L-38" value="" style="ellipse;whiteSpace=wrap;html=1;aspect=fixed;shadow=0;fillStyle=solid;fillColor=#5A5A5A;" vertex="1" parent="6IdksCOMpPBM9RsViP1L-35">
          <mxGeometry x="22.5" y="12" width="30" height="30" as="geometry" />
        </mxCell>
        <mxCell id="6IdksCOMpPBM9RsViP1L-39" value="" style="ellipse;whiteSpace=wrap;html=1;aspect=fixed;shadow=0;fillStyle=solid;fillColor=#5A5A5A;" vertex="1" parent="6IdksCOMpPBM9RsViP1L-35">
          <mxGeometry x="22.5" y="135" width="30" height="30" as="geometry" />
        </mxCell>
        <mxCell id="6IdksCOMpPBM9RsViP1L-40" value="" style="ellipse;whiteSpace=wrap;html=1;aspect=fixed;shadow=0;fillStyle=solid;fillColor=#5A5A5A;" vertex="1" parent="6IdksCOMpPBM9RsViP1L-35">
          <mxGeometry x="22.5" y="172" width="30" height="30" as="geometry" />
        </mxCell>
        <mxCell id="6IdksCOMpPBM9RsViP1L-41" value="" style="ellipse;whiteSpace=wrap;html=1;aspect=fixed;shadow=0;fillStyle=solid;fillColor=#5A5A5A;" vertex="1" parent="6IdksCOMpPBM9RsViP1L-35">
          <mxGeometry x="22.5" y="52" width="30" height="30" as="geometry" />
        </mxCell>
        <mxCell id="6IdksCOMpPBM9RsViP1L-42" value="" style="ellipse;whiteSpace=wrap;html=1;aspect=fixed;shadow=0;fillStyle=solid;fillColor=#5A5A5A;" vertex="1" parent="6IdksCOMpPBM9RsViP1L-35">
          <mxGeometry x="22.5" y="90" width="30" height="30" as="geometry" />
        </mxCell>
        <mxCell id="6IdksCOMpPBM9RsViP1L-43" style="edgeStyle=orthogonalEdgeStyle;rounded=0;orthogonalLoop=1;jettySize=auto;html=1;exitX=1;exitY=0.5;exitDx=0;exitDy=0;entryX=0;entryY=0.5;entryDx=0;entryDy=0;" edge="1" parent="1" source="6IdksCOMpPBM9RsViP1L-8" target="6IdksCOMpPBM9RsViP1L-27">
          <mxGeometry relative="1" as="geometry" />
        </mxCell>
        <mxCell id="6IdksCOMpPBM9RsViP1L-49" value="Dropout" style="edgeLabel;html=1;align=center;verticalAlign=middle;resizable=0;points=[];" vertex="1" connectable="0" parent="6IdksCOMpPBM9RsViP1L-43">
          <mxGeometry x="-0.2369" y="3" relative="1" as="geometry">
            <mxPoint as="offset" />
          </mxGeometry>
        </mxCell>
        <mxCell id="6IdksCOMpPBM9RsViP1L-46" style="edgeStyle=orthogonalEdgeStyle;rounded=0;orthogonalLoop=1;jettySize=auto;html=1;exitX=1;exitY=0.5;exitDx=0;exitDy=0;entryX=0;entryY=0.5;entryDx=0;entryDy=0;" edge="1" parent="1" source="6IdksCOMpPBM9RsViP1L-27" target="6IdksCOMpPBM9RsViP1L-36">
          <mxGeometry relative="1" as="geometry" />
        </mxCell>
        <mxCell id="6IdksCOMpPBM9RsViP1L-47" value="Dropout" style="edgeLabel;html=1;align=center;verticalAlign=middle;resizable=0;points=[];" vertex="1" connectable="0" parent="6IdksCOMpPBM9RsViP1L-46">
          <mxGeometry x="-0.0523" relative="1" as="geometry">
            <mxPoint as="offset" />
          </mxGeometry>
        </mxCell>
        <mxCell id="6IdksCOMpPBM9RsViP1L-50" style="rounded=0;orthogonalLoop=1;jettySize=auto;html=1;entryX=0;entryY=0.5;entryDx=0;entryDy=0;" edge="1" parent="1" source="6IdksCOMpPBM9RsViP1L-1" target="6IdksCOMpPBM9RsViP1L-16">
          <mxGeometry relative="1" as="geometry">
            <mxPoint x="190" y="180" as="sourcePoint" />
            <mxPoint x="230" y="170" as="targetPoint" />
          </mxGeometry>
        </mxCell>
        <mxCell id="6IdksCOMpPBM9RsViP1L-52" style="rounded=0;orthogonalLoop=1;jettySize=auto;html=1;exitX=0.9;exitY=0.62;exitDx=0;exitDy=0;exitPerimeter=0;" edge="1" parent="1" source="6IdksCOMpPBM9RsViP1L-1" target="6IdksCOMpPBM9RsViP1L-17">
          <mxGeometry relative="1" as="geometry">
            <mxPoint x="250" y="180" as="sourcePoint" />
            <mxPoint x="353" y="190" as="targetPoint" />
          </mxGeometry>
        </mxCell>
        <mxCell id="6IdksCOMpPBM9RsViP1L-53" style="rounded=0;orthogonalLoop=1;jettySize=auto;html=1;exitX=0.96;exitY=0.593;exitDx=0;exitDy=0;exitPerimeter=0;" edge="1" parent="1" source="6IdksCOMpPBM9RsViP1L-1" target="6IdksCOMpPBM9RsViP1L-21">
          <mxGeometry relative="1" as="geometry">
            <mxPoint x="300" y="190" as="sourcePoint" />
            <mxPoint x="403" y="200" as="targetPoint" />
          </mxGeometry>
        </mxCell>
        <mxCell id="6IdksCOMpPBM9RsViP1L-54" style="rounded=0;orthogonalLoop=1;jettySize=auto;html=1;exitX=1.04;exitY=0.62;exitDx=0;exitDy=0;exitPerimeter=0;" edge="1" parent="1" source="6IdksCOMpPBM9RsViP1L-1" target="6IdksCOMpPBM9RsViP1L-19">
          <mxGeometry relative="1" as="geometry">
            <mxPoint x="300" y="190" as="sourcePoint" />
            <mxPoint x="403" y="200" as="targetPoint" />
          </mxGeometry>
        </mxCell>
        <mxCell id="6IdksCOMpPBM9RsViP1L-55" style="rounded=0;orthogonalLoop=1;jettySize=auto;html=1;entryX=0;entryY=0;entryDx=0;entryDy=0;" edge="1" parent="1" target="6IdksCOMpPBM9RsViP1L-18">
          <mxGeometry relative="1" as="geometry">
            <mxPoint x="188" y="180" as="sourcePoint" />
            <mxPoint x="351" y="380" as="targetPoint" />
          </mxGeometry>
        </mxCell>
        <mxCell id="6IdksCOMpPBM9RsViP1L-56" value="alpha" style="text;html=1;align=center;verticalAlign=middle;resizable=0;points=[];autosize=1;strokeColor=none;fillColor=none;" vertex="1" parent="1">
          <mxGeometry x="145" y="188" width="50" height="30" as="geometry" />
        </mxCell>
        <mxCell id="6IdksCOMpPBM9RsViP1L-57" style="rounded=0;orthogonalLoop=1;jettySize=auto;html=1;entryX=0;entryY=0.5;entryDx=0;entryDy=0;" edge="1" parent="1" source="6IdksCOMpPBM9RsViP1L-56" target="6IdksCOMpPBM9RsViP1L-16">
          <mxGeometry relative="1" as="geometry">
            <mxPoint x="190" y="210" as="sourcePoint" />
            <mxPoint x="293" y="215" as="targetPoint" />
          </mxGeometry>
        </mxCell>
        <mxCell id="6IdksCOMpPBM9RsViP1L-58" style="rounded=0;orthogonalLoop=1;jettySize=auto;html=1;exitX=0.9;exitY=0.62;exitDx=0;exitDy=0;exitPerimeter=0;entryX=0;entryY=0;entryDx=0;entryDy=0;" edge="1" parent="1" source="6IdksCOMpPBM9RsViP1L-56" target="6IdksCOMpPBM9RsViP1L-17">
          <mxGeometry relative="1" as="geometry">
            <mxPoint x="250" y="210" as="sourcePoint" />
            <mxPoint x="297" y="327" as="targetPoint" />
          </mxGeometry>
        </mxCell>
        <mxCell id="6IdksCOMpPBM9RsViP1L-59" style="rounded=0;orthogonalLoop=1;jettySize=auto;html=1;exitX=0.96;exitY=0.593;exitDx=0;exitDy=0;exitPerimeter=0;entryX=0;entryY=0.5;entryDx=0;entryDy=0;" edge="1" parent="1" source="6IdksCOMpPBM9RsViP1L-56" target="6IdksCOMpPBM9RsViP1L-21">
          <mxGeometry relative="1" as="geometry">
            <mxPoint x="300" y="220" as="sourcePoint" />
            <mxPoint x="295" y="284" as="targetPoint" />
          </mxGeometry>
        </mxCell>
        <mxCell id="6IdksCOMpPBM9RsViP1L-60" style="rounded=0;orthogonalLoop=1;jettySize=auto;html=1;exitX=1.04;exitY=0.62;exitDx=0;exitDy=0;exitPerimeter=0;entryX=0;entryY=0.5;entryDx=0;entryDy=0;" edge="1" parent="1" source="6IdksCOMpPBM9RsViP1L-56" target="6IdksCOMpPBM9RsViP1L-19">
          <mxGeometry relative="1" as="geometry">
            <mxPoint x="300" y="220" as="sourcePoint" />
            <mxPoint x="294" y="249" as="targetPoint" />
          </mxGeometry>
        </mxCell>
        <mxCell id="6IdksCOMpPBM9RsViP1L-61" style="rounded=0;orthogonalLoop=1;jettySize=auto;html=1;entryX=0;entryY=0;entryDx=0;entryDy=0;" edge="1" parent="1" target="6IdksCOMpPBM9RsViP1L-18">
          <mxGeometry relative="1" as="geometry">
            <mxPoint x="188" y="210" as="sourcePoint" />
            <mxPoint x="297" y="364" as="targetPoint" />
          </mxGeometry>
        </mxCell>
        <mxCell id="6IdksCOMpPBM9RsViP1L-62" value="&lt;font style=&quot;font-size: 18px;&quot;&gt;......&lt;/font&gt;" style="text;html=1;align=center;verticalAlign=middle;resizable=0;points=[];autosize=1;strokeColor=none;fillColor=none;rotation=90;" vertex="1" parent="1">
          <mxGeometry x="150" y="230" width="50" height="40" as="geometry" />
        </mxCell>
        <mxCell id="6IdksCOMpPBM9RsViP1L-63" value="triang" style="text;html=1;align=center;verticalAlign=middle;resizable=0;points=[];autosize=1;strokeColor=none;fillColor=none;" vertex="1" parent="1">
          <mxGeometry x="145" y="320" width="50" height="30" as="geometry" />
        </mxCell>
        <mxCell id="6IdksCOMpPBM9RsViP1L-64" style="rounded=0;orthogonalLoop=1;jettySize=auto;html=1;entryX=0;entryY=0.5;entryDx=0;entryDy=0;" edge="1" parent="1" source="6IdksCOMpPBM9RsViP1L-63" target="6IdksCOMpPBM9RsViP1L-18">
          <mxGeometry relative="1" as="geometry">
            <mxPoint x="190" y="342" as="sourcePoint" />
            <mxPoint x="293" y="347" as="targetPoint" />
          </mxGeometry>
        </mxCell>
        <mxCell id="6IdksCOMpPBM9RsViP1L-65" style="rounded=0;orthogonalLoop=1;jettySize=auto;html=1;exitX=0.9;exitY=0.62;exitDx=0;exitDy=0;exitPerimeter=0;entryX=0;entryY=0.5;entryDx=0;entryDy=0;" edge="1" parent="1" source="6IdksCOMpPBM9RsViP1L-63" target="6IdksCOMpPBM9RsViP1L-19">
          <mxGeometry relative="1" as="geometry">
            <mxPoint x="250" y="342" as="sourcePoint" />
            <mxPoint x="297" y="459" as="targetPoint" />
          </mxGeometry>
        </mxCell>
        <mxCell id="6IdksCOMpPBM9RsViP1L-66" style="rounded=0;orthogonalLoop=1;jettySize=auto;html=1;exitX=0.96;exitY=0.593;exitDx=0;exitDy=0;exitPerimeter=0;entryX=0;entryY=0.5;entryDx=0;entryDy=0;" edge="1" parent="1" source="6IdksCOMpPBM9RsViP1L-63" target="6IdksCOMpPBM9RsViP1L-21">
          <mxGeometry relative="1" as="geometry">
            <mxPoint x="300" y="352" as="sourcePoint" />
            <mxPoint x="295" y="416" as="targetPoint" />
          </mxGeometry>
        </mxCell>
        <mxCell id="6IdksCOMpPBM9RsViP1L-67" style="rounded=0;orthogonalLoop=1;jettySize=auto;html=1;exitX=1.04;exitY=0.62;exitDx=0;exitDy=0;exitPerimeter=0;entryX=0;entryY=0.5;entryDx=0;entryDy=0;" edge="1" parent="1" source="6IdksCOMpPBM9RsViP1L-63" target="6IdksCOMpPBM9RsViP1L-17">
          <mxGeometry relative="1" as="geometry">
            <mxPoint x="300" y="352" as="sourcePoint" />
            <mxPoint x="294" y="381" as="targetPoint" />
          </mxGeometry>
        </mxCell>
        <mxCell id="6IdksCOMpPBM9RsViP1L-68" style="rounded=0;orthogonalLoop=1;jettySize=auto;html=1;entryX=0;entryY=0.5;entryDx=0;entryDy=0;" edge="1" parent="1" target="6IdksCOMpPBM9RsViP1L-16">
          <mxGeometry relative="1" as="geometry">
            <mxPoint x="188" y="342" as="sourcePoint" />
            <mxPoint x="297" y="496" as="targetPoint" />
          </mxGeometry>
        </mxCell>
        <mxCell id="6IdksCOMpPBM9RsViP1L-69" value="Input layer" style="text;whiteSpace=wrap;html=1;" vertex="1" parent="1">
          <mxGeometry x="145" y="380" width="70" height="30" as="geometry" />
        </mxCell>
        <mxCell id="6IdksCOMpPBM9RsViP1L-70" value="" style="group" vertex="1" connectable="0" parent="1">
          <mxGeometry x="630" y="188" width="80" height="222" as="geometry" />
        </mxCell>
        <mxCell id="6IdksCOMpPBM9RsViP1L-71" value="" style="rounded=1;whiteSpace=wrap;html=1;" vertex="1" parent="6IdksCOMpPBM9RsViP1L-70">
          <mxGeometry width="80" height="160" as="geometry" />
        </mxCell>
        <mxCell id="6IdksCOMpPBM9RsViP1L-72" value="Output layer" style="text;whiteSpace=wrap;html=1;" vertex="1" parent="6IdksCOMpPBM9RsViP1L-70">
          <mxGeometry x="5.336666666666667" y="195.57142857142856" width="74.66666666666667" height="26.428571428571427" as="geometry" />
        </mxCell>
        <mxCell id="6IdksCOMpPBM9RsViP1L-73" value="" style="ellipse;whiteSpace=wrap;html=1;aspect=fixed;shadow=0;fillStyle=solid;fillColor=light-dark(#0000ff, #a0a0a0);" vertex="1" parent="6IdksCOMpPBM9RsViP1L-70">
          <mxGeometry x="10" y="10.571428571428571" width="26.427999999999997" height="26.427999999999997" as="geometry" />
        </mxCell>
        <mxCell id="6IdksCOMpPBM9RsViP1L-74" value="" style="ellipse;whiteSpace=wrap;html=1;aspect=fixed;shadow=0;fillStyle=solid;fillColor=light-dark(#0000ff, #a0a0a0);" vertex="1" parent="6IdksCOMpPBM9RsViP1L-70">
          <mxGeometry x="50.43" y="41.998571428571424" width="26.427999999999997" height="26.427999999999997" as="geometry" />
        </mxCell>
        <mxCell id="6IdksCOMpPBM9RsViP1L-76" value="" style="ellipse;whiteSpace=wrap;html=1;aspect=fixed;shadow=0;fillStyle=solid;fillColor=light-dark(#0000ff, #a0a0a0);" vertex="1" parent="6IdksCOMpPBM9RsViP1L-70">
          <mxGeometry x="50.43" y="10.569523809523808" width="26.427999999999997" height="26.427999999999997" as="geometry" />
        </mxCell>
        <mxCell id="6IdksCOMpPBM9RsViP1L-77" value="" style="ellipse;whiteSpace=wrap;html=1;aspect=fixed;shadow=0;fillStyle=solid;fillColor=light-dark(#0000ff, #a0a0a0);" vertex="1" parent="6IdksCOMpPBM9RsViP1L-70">
          <mxGeometry x="10" y="41.99571428571428" width="26.427999999999997" height="26.427999999999997" as="geometry" />
        </mxCell>
        <mxCell id="6IdksCOMpPBM9RsViP1L-79" value="" style="ellipse;whiteSpace=wrap;html=1;aspect=fixed;shadow=0;fillStyle=solid;fillColor=light-dark(#0000ff, #a0a0a0);" vertex="1" parent="6IdksCOMpPBM9RsViP1L-70">
          <mxGeometry x="10" y="82.07190476190476" width="26.427999999999997" height="26.427999999999997" as="geometry" />
        </mxCell>
        <mxCell id="6IdksCOMpPBM9RsViP1L-80" value="" style="ellipse;whiteSpace=wrap;html=1;aspect=fixed;shadow=0;fillStyle=solid;fillColor=light-dark(#0000ff, #a0a0a0);" vertex="1" parent="6IdksCOMpPBM9RsViP1L-70">
          <mxGeometry x="50.42999999999995" y="113.49904761904764" width="26.427999999999997" height="26.427999999999997" as="geometry" />
        </mxCell>
        <mxCell id="6IdksCOMpPBM9RsViP1L-81" value="" style="ellipse;whiteSpace=wrap;html=1;aspect=fixed;shadow=0;fillStyle=solid;fillColor=light-dark(#0000ff, #a0a0a0);" vertex="1" parent="6IdksCOMpPBM9RsViP1L-70">
          <mxGeometry x="50.42999999999995" y="82.07" width="26.427999999999997" height="26.427999999999997" as="geometry" />
        </mxCell>
        <mxCell id="6IdksCOMpPBM9RsViP1L-82" value="" style="ellipse;whiteSpace=wrap;html=1;aspect=fixed;shadow=0;fillStyle=solid;fillColor=light-dark(#0000ff, #a0a0a0);" vertex="1" parent="6IdksCOMpPBM9RsViP1L-70">
          <mxGeometry x="10" y="113.49619047619046" width="26.427999999999997" height="26.427999999999997" as="geometry" />
        </mxCell>
        <mxCell id="6IdksCOMpPBM9RsViP1L-83" style="rounded=0;orthogonalLoop=1;jettySize=auto;html=1;exitX=1;exitY=0.5;exitDx=0;exitDy=0;" edge="1" parent="1" source="6IdksCOMpPBM9RsViP1L-38" target="6IdksCOMpPBM9RsViP1L-73">
          <mxGeometry relative="1" as="geometry" />
        </mxCell>
        <mxCell id="6IdksCOMpPBM9RsViP1L-84" style="rounded=0;orthogonalLoop=1;jettySize=auto;html=1;exitX=1;exitY=0.5;exitDx=0;exitDy=0;entryX=0;entryY=0.5;entryDx=0;entryDy=0;" edge="1" parent="1" source="6IdksCOMpPBM9RsViP1L-38" target="6IdksCOMpPBM9RsViP1L-77">
          <mxGeometry relative="1" as="geometry" />
        </mxCell>
        <mxCell id="6IdksCOMpPBM9RsViP1L-85" style="rounded=0;orthogonalLoop=1;jettySize=auto;html=1;exitX=1;exitY=0.5;exitDx=0;exitDy=0;entryX=0;entryY=0;entryDx=0;entryDy=0;" edge="1" parent="1" source="6IdksCOMpPBM9RsViP1L-38" target="6IdksCOMpPBM9RsViP1L-79">
          <mxGeometry relative="1" as="geometry" />
        </mxCell>
        <mxCell id="6IdksCOMpPBM9RsViP1L-86" style="rounded=0;orthogonalLoop=1;jettySize=auto;html=1;exitX=1;exitY=0.5;exitDx=0;exitDy=0;entryX=0;entryY=0.5;entryDx=0;entryDy=0;" edge="1" parent="1" source="6IdksCOMpPBM9RsViP1L-38" target="6IdksCOMpPBM9RsViP1L-82">
          <mxGeometry relative="1" as="geometry" />
        </mxCell>
        <mxCell id="6IdksCOMpPBM9RsViP1L-87" style="rounded=0;orthogonalLoop=1;jettySize=auto;html=1;exitX=1;exitY=0.5;exitDx=0;exitDy=0;entryX=0;entryY=0.5;entryDx=0;entryDy=0;" edge="1" parent="1" source="6IdksCOMpPBM9RsViP1L-42" target="6IdksCOMpPBM9RsViP1L-73">
          <mxGeometry relative="1" as="geometry" />
        </mxCell>
        <mxCell id="6IdksCOMpPBM9RsViP1L-89" style="rounded=0;orthogonalLoop=1;jettySize=auto;html=1;exitX=1;exitY=0.5;exitDx=0;exitDy=0;entryX=0;entryY=0.5;entryDx=0;entryDy=0;" edge="1" parent="1" source="6IdksCOMpPBM9RsViP1L-42" target="6IdksCOMpPBM9RsViP1L-77">
          <mxGeometry relative="1" as="geometry" />
        </mxCell>
        <mxCell id="6IdksCOMpPBM9RsViP1L-90" style="rounded=0;orthogonalLoop=1;jettySize=auto;html=1;exitX=1;exitY=0.5;exitDx=0;exitDy=0;entryX=0;entryY=0.5;entryDx=0;entryDy=0;" edge="1" parent="1" source="6IdksCOMpPBM9RsViP1L-42" target="6IdksCOMpPBM9RsViP1L-79">
          <mxGeometry relative="1" as="geometry" />
        </mxCell>
        <mxCell id="6IdksCOMpPBM9RsViP1L-91" style="rounded=0;orthogonalLoop=1;jettySize=auto;html=1;exitX=1;exitY=0.5;exitDx=0;exitDy=0;entryX=0;entryY=0.5;entryDx=0;entryDy=0;" edge="1" parent="1" source="6IdksCOMpPBM9RsViP1L-42" target="6IdksCOMpPBM9RsViP1L-82">
          <mxGeometry relative="1" as="geometry" />
        </mxCell>
        <mxCell id="6IdksCOMpPBM9RsViP1L-92" style="rounded=0;orthogonalLoop=1;jettySize=auto;html=1;exitX=1;exitY=0.5;exitDx=0;exitDy=0;entryX=0;entryY=1;entryDx=0;entryDy=0;" edge="1" parent="1" source="6IdksCOMpPBM9RsViP1L-40" target="6IdksCOMpPBM9RsViP1L-73">
          <mxGeometry relative="1" as="geometry" />
        </mxCell>
        <mxCell id="6IdksCOMpPBM9RsViP1L-93" style="rounded=0;orthogonalLoop=1;jettySize=auto;html=1;exitX=1;exitY=0.5;exitDx=0;exitDy=0;entryX=0;entryY=1;entryDx=0;entryDy=0;" edge="1" parent="1" source="6IdksCOMpPBM9RsViP1L-40" target="6IdksCOMpPBM9RsViP1L-77">
          <mxGeometry relative="1" as="geometry" />
        </mxCell>
        <mxCell id="6IdksCOMpPBM9RsViP1L-94" style="rounded=0;orthogonalLoop=1;jettySize=auto;html=1;exitX=1;exitY=0.5;exitDx=0;exitDy=0;entryX=0;entryY=0.5;entryDx=0;entryDy=0;" edge="1" parent="1" source="6IdksCOMpPBM9RsViP1L-40" target="6IdksCOMpPBM9RsViP1L-79">
          <mxGeometry relative="1" as="geometry" />
        </mxCell>
        <mxCell id="6IdksCOMpPBM9RsViP1L-95" style="rounded=0;orthogonalLoop=1;jettySize=auto;html=1;exitX=1;exitY=0.5;exitDx=0;exitDy=0;entryX=0;entryY=0.5;entryDx=0;entryDy=0;" edge="1" parent="1" source="6IdksCOMpPBM9RsViP1L-40" target="6IdksCOMpPBM9RsViP1L-82">
          <mxGeometry relative="1" as="geometry" />
        </mxCell>
      </root>
    </mxGraphModel>
  </diagram>
</mxfile>
